<?xml version="1.0" standalone="no"?>
<!DOCTYPE svg PUBLIC "-//W3C//DTD SVG 20010904//EN"
 "http://www.w3.org/TR/2001/REC-SVG-20010904/DTD/svg10.dtd">
<svg version="1.0" xmlns="http://www.w3.org/2000/svg"
 width="500.000000pt" height="500.000000pt" viewBox="0 0 500.000000 500.000000"
 preserveAspectRatio="xMidYMid meet">
<metadata>
Created by potrace 1.11, written by Peter Selinger 2001-2013
</metadata>
<g transform="translate(0.000000,500.000000) scale(0.100000,-0.100000)"
fill="#000000" stroke="none">
<path d="M2359 3880 c-287 -46 -408 -126 -437 -290 -37 -205 133 -442 413
-580 157 -76 162 -75 68 22 -105 108 -143 183 -143 279 0 83 32 151 102 214
59 53 187 118 276 141 179 44 465 34 706 -27 43 -11 80 -18 83 -15 14 14 -238
133 -381 181 -167 56 -281 75 -466 80 -91 2 -190 0 -221 -5z"/>
<path d="M1775 3676 c-144 -109 -241 -235 -293 -378 -25 -67 -27 -85 -27 -223
0 -120 4 -161 19 -205 68 -201 208 -347 466 -488 41 -22 188 -92 325 -155 311
-142 460 -216 550 -274 135 -87 273 -252 321 -383 24 -69 22 -184 -5 -245 -12
-27 -34 -62 -48 -77 -74 -77 53 -11 173 91 121 101 207 236 249 386 22 82 31
265 16 351 -20 115 -61 186 -170 294 -154 153 -263 217 -741 440 -501 234
-561 267 -670 379 -138 140 -171 301 -100 482 11 27 20 52 20 54 0 12 -20 1
-85 -49z"/>
<path d="M2583 1940 c93 -97 129 -166 135 -258 4 -55 0 -71 -27 -127 -96 -194
-386 -299 -740 -266 -108 10 -321 47 -384 67 -13 4 -17 2 -12 -5 13 -21 243
-130 360 -171 193 -66 309 -85 525 -84 152 0 201 4 275 21 185 43 262 89 313
187 24 45 27 62 27 147 0 90 -2 99 -38 171 -69 140 -216 273 -389 352 -128 59
-131 57 -45 -34z"/>
</g>
</svg>
