<?xml version="1.0" standalone="no"?>
<!DOCTYPE svg PUBLIC "-//W3C//DTD SVG 20010904//EN"
 "http://www.w3.org/TR/2001/REC-SVG-20010904/DTD/svg10.dtd">
<svg version="1.0" xmlns="http://www.w3.org/2000/svg"
 width="500.000000pt" height="500.000000pt" viewBox="0 0 500.000000 500.000000"
 preserveAspectRatio="xMidYMid meet">
<metadata>
Created by potrace 1.14, written by Peter Selinger 2001-2017
</metadata>
<g transform="translate(0.000000,500.000000) scale(0.100000,-0.100000)"
fill="#000000" stroke="none">
<path d="M1743 4318 c5 -37 67 -332 71 -335 2 -2 1314 -23 1442 -23 l72 0 25
-82 c70 -227 97 -315 103 -340 l6 -28 -115 0 -116 0 -20 68 c-11 37 -23 79
-27 95 l-6 27 -97 1 c-53 0 -404 8 -781 17 l-685 17 -9 53 c-9 52 -9 52 -46
52 -52 0 -179 -34 -238 -64 -109 -55 -232 -201 -281 -331 -43 -114 -43 -301
-1 -540 12 -66 41 -219 65 -340 54 -274 49 -251 73 -370 11 -55 30 -152 41
-215 42 -225 86 -345 166 -445 64 -79 137 -138 220 -176 136 -61 123 -60 1013
-66 456 -3 812 -2 812 3 0 5 -16 72 -35 149 l-34 140 154 155 c173 173 171
169 138 274 l-17 54 -160 6 c-273 9 -1131 26 -1313 26 -94 0 -174 4 -177 9 -3
5 -22 85 -42 178 -20 92 -39 178 -41 190 -4 16 10 42 53 95 33 40 75 94 94
120 19 26 38 48 42 48 3 0 9 -19 13 -42 13 -80 54 -283 65 -319 l10 -37 168
-6 c187 -7 941 -24 1572 -35 446 -8 460 -10 517 -63 13 -12 23 -16 23 -10 0 7
-36 119 -79 250 -44 130 -125 379 -181 552 -55 173 -107 331 -115 350 -7 19
-43 130 -80 245 -102 319 -142 431 -170 479 -35 59 -99 117 -165 148 -52 24
-70 27 -295 37 -132 6 -409 15 -615 21 -206 6 -511 18 -677 26 -166 8 -312 14
-324 14 -18 0 -21 -4 -16 -32z m200 -925 c15 -76 29 -154 33 -175 l6 -36 131
-6 c73 -3 335 -8 582 -11 248 -3 538 -8 647 -12 l196 -6 17 -61 c10 -34 30
-99 45 -146 51 -155 71 -222 68 -225 -2 -1 -53 0 -115 3 l-111 4 -17 62 c-9
33 -21 79 -27 102 l-11 41 -789 6 c-435 3 -793 8 -796 11 -4 5 -34 125 -67
278 l-15 67 52 68 c29 38 71 91 93 120 22 28 43 52 46 52 3 1 18 -61 32 -136z"/>
</g>
</svg>
