<svg width="636" height="563" viewBox="0 0 636 563" fill="none" xmlns="http://www.w3.org/2000/svg">
<path d="M475.286 412.087L425.767 383.018L386.871 440.902C409.594 459.866 447.77 473.657 467.496 469.446C507.98 460.803 589.789 345.859 601.14 337.108C639.783 307.317 652.345 296.011 603.99 319.16C557.889 341.23 582.306 319.16 571.011 319.16C557.442 320.108 561.938 332.151 566.975 340.781L475.286 412.087Z" fill="url(#paint0_linear)"/>
<path d="M194.316 368.05C208.286 358.348 263.49 340.872 287.734 333.347L313.385 336.146C329.546 340.152 364.211 346.983 380.156 353.447C396.101 359.912 425.039 380.527 452.034 397.718L445.66 419.794C439.936 439.619 424.797 455.342 405.203 461.813C400.161 493.879 395.812 546.01 396.531 562.171L208.929 562.026L200.34 482.68L161.708 486.818L129.075 461.813C169.937 391.137 176.852 380.177 194.316 368.05Z" fill="#27AE60"/>
<path d="M140.646 550.376C81.2056 542.839 119.865 482.596 130.404 462.7C143.151 473.43 158.891 479.977 175.487 481.451L195.971 483.271L187.583 502.621L278.138 523.82L290.843 559.064C281.794 557.524 214.563 559.749 140.646 550.376Z" fill="url(#paint1_linear)"/>
<path d="M294.057 175.181C296.982 169.891 305.372 162.484 315.529 175.181H294.057Z" fill="#30235B"/>
<ellipse cx="298.933" cy="356.42" rx="32.3783" ry="23.073" fill="#40A629"/>
<path d="M272.403 355.18L276.929 310.116H320.992L326.053 355.18C324.284 360.488 315.932 371.254 300.465 371.254C280.752 371.254 273.667 360.488 272.403 355.18Z" fill="url(#paint2_linear)"/>
<path d="M298.169 328.207C250.651 328.207 242.479 259.998 257.161 228.799C290.195 188.423 331.488 211.976 348.005 228.799C351.981 254.798 356.367 328.207 298.169 328.207Z" fill="url(#paint3_linear)"/>
<path d="M348.816 276.025L339.507 269.167L340.947 264.061L351.58 271.073L348.816 276.025Z" fill="#111111"/>
<path d="M251.822 274.037L261.131 267.178L259.691 262.073L249.058 269.084L251.822 274.037Z" fill="#111111"/>
<path d="M260.341 232.898C294.03 254.847 331.377 242.043 345.839 232.898C342.794 242.502 347.108 260.963 349.646 268.993C371.566 240.447 364.4 225.032 358.077 220.893C357.023 206.666 344.089 171.094 300.67 172.78C257.25 174.466 248.825 205.26 250.055 216.677C233.614 239.019 243.396 260.864 251.325 268.993C260.341 251.49 260.135 239.211 260.341 232.898Z" fill="#30235B"/>
<g filter="url(#filter0_d)">
<path d="M304.121 194.747C253.827 193.063 242.625 226.138 241.121 245.344C241.001 246.882 239.743 248.093 238.2 248.093C236.555 248.093 235.243 246.721 235.389 245.082C237.584 220.455 250.713 177.423 304.121 180.39C358.045 183.386 368.594 226.314 366.94 250.244C366.851 251.525 365.769 252.493 364.486 252.493C363.086 252.493 361.962 251.357 361.906 249.958C361.114 230.103 347.913 196.016 304.121 194.747Z" fill="white"/>
</g>
<g filter="url(#filter1_d)">
<rect x="367.947" y="260.346" width="6.82623" height="26.1957" rx="3.41312" transform="rotate(10.0542 367.947 260.346)" fill="#24C28A"/>
</g>
<g filter="url(#filter2_d)">
<rect x="353.281" y="243.363" width="21.0268" height="54.5696" rx="10.5134" transform="rotate(10.0542 353.281 243.363)" fill="white"/>
</g>
<g filter="url(#filter3_d)">
<rect width="6.82623" height="26.1957" rx="3.41312" transform="matrix(-0.984643 0.17458 0.17458 0.984643 232.175 260.346)" fill="#24C28A"/>
</g>
<g filter="url(#filter4_d)">
<rect width="21.0268" height="54.5696" rx="10.5134" transform="matrix(-0.984643 0.17458 0.17458 0.984643 246.65 243.363)" fill="white"/>
</g>
<mask id="mask0" mask-type="alpha" maskUnits="userSpaceOnUse" x="225" y="243" width="32" height="58">
<rect width="21.0268" height="54.5696" rx="10.5134" transform="matrix(-0.984643 0.17458 0.17458 0.984643 246.65 243.363)" fill="white"/>
</mask>
<g mask="url(#mask0)">
<rect x="236.748" y="243.363" width="27.3511" height="59.2363" transform="rotate(-10.0977 236.748 243.363)" fill="#E8E8E8"/>
</g>
<mask id="mask1" mask-type="alpha" maskUnits="userSpaceOnUse" x="343" y="243" width="31" height="58">
<rect x="353.281" y="243.363" width="21.0268" height="54.5696" rx="10.5134" transform="rotate(10.0542 353.281 243.363)" fill="white"/>
</mask>
<g mask="url(#mask1)">
<rect width="27.3511" height="59.2363" transform="matrix(-0.98451 -0.175326 -0.175326 0.98451 364.458 243.363)" fill="#E8E8E8"/>
</g>
<path opacity="0.5" d="M277.693 283.993C270.971 283.993 267.585 278.695 266.725 276.329C265.736 274.35 264.955 269.196 267.297 265.101C270.275 259.895 284.274 258.443 289.178 265.798C294.081 273.153 289.178 283.993 277.693 283.993Z" fill="#E6FCFF"/>
<path opacity="0.5" d="M322.237 283.993C328.96 283.993 332.345 278.695 333.205 276.329C334.195 274.35 334.976 269.196 332.633 265.101C329.655 259.895 315.656 258.443 310.753 265.798C305.849 273.153 310.753 283.993 322.237 283.993Z" fill="#E6FCFF"/>
<path fill-rule="evenodd" clip-rule="evenodd" d="M292.651 264.175C281.687 254.547 271.784 258.62 265.916 261.034L265.916 261.034C265.264 261.303 264.661 261.551 264.112 261.757L260.19 261.764C259.635 261.765 259.187 262.218 259.192 262.773L259.223 266.355C259.228 266.903 259.675 267.346 260.223 267.346L263.124 267.346C261.2 283.865 273.382 288.286 283.125 285.308C291.811 282.653 294.136 275.142 294.601 270.43C296.459 266.313 304.605 268.215 304.927 270.338C304.935 270.388 304.943 270.444 304.952 270.505C305.335 273.091 307.261 286.116 321.925 286.134C333.937 286.149 337.194 275.419 337.322 270.051L340.678 270.022C341.23 270.017 341.674 269.565 341.669 269.013L341.631 264.741C341.626 264.189 341.174 263.745 340.622 263.75L337.266 263.779C329.442 255.853 312.635 256.595 306.715 264.05C300.184 262.544 294.618 263.506 292.651 264.175ZM277.694 283.993C270.971 283.993 267.586 278.695 266.725 276.329C265.736 274.35 264.955 269.196 267.297 265.101C270.275 259.895 284.275 258.443 289.178 265.798C294.082 273.153 289.178 283.993 277.694 283.993ZM333.207 276.329C332.346 278.695 328.961 283.993 322.238 283.993C310.754 283.993 305.85 273.153 310.754 265.798C315.657 258.443 329.656 259.895 332.635 265.101C334.977 269.195 334.196 274.35 333.207 276.329Z" fill="#111111"/>
<path d="M204.955 555.486C204.955 554.794 205.515 554.233 206.207 554.233H398.678C399.888 554.233 400.87 555.215 400.87 556.425C400.87 560.056 397.926 563 394.295 563H212.469C208.319 563 204.955 559.636 204.955 555.486Z" fill="#B4B4B4"/>
<rect x="204.955" y="426.409" width="195.915" height="131.08" rx="2.94666" fill="url(#paint4_linear)"/>
<circle cx="302.912" cy="491.949" r="13.933" fill="white"/>
<path fill-rule="evenodd" clip-rule="evenodd" d="M163.708 257.773C163.957 253.524 164.804 249.967 165.51 247.989C166.897 251.457 167.583 254.787 167.815 257.823C170.851 258.055 174.18 258.741 177.648 260.128C175.671 260.834 172.114 261.681 167.865 261.93C167.628 266.441 166.468 269.946 165.51 271.742C164.345 268.479 163.813 265.124 163.675 261.963C160.514 261.825 157.158 261.293 153.896 260.128C155.692 259.171 159.197 258.01 163.708 257.773Z" fill="url(#paint5_linear)"/>
<path fill-rule="evenodd" clip-rule="evenodd" d="M130.189 229.816C130.354 226.987 130.918 224.619 131.388 223.303C132.312 225.611 132.768 227.828 132.922 229.849C134.943 230.003 137.16 230.46 139.468 231.383C138.152 231.853 135.784 232.417 132.956 232.582C132.798 235.585 132.026 237.918 131.388 239.113C130.613 236.942 130.259 234.708 130.167 232.605C128.063 232.512 125.829 232.158 123.658 231.383C124.853 230.745 127.186 229.973 130.189 229.816Z" fill="url(#paint6_linear)"/>
<path fill-rule="evenodd" clip-rule="evenodd" d="M76.1808 209.897C76.4293 205.648 77.2765 202.09 77.9827 200.113C79.3699 203.581 80.0556 206.911 80.2874 209.947C83.3237 210.179 86.6531 210.865 90.1211 212.252C88.1439 212.958 84.5867 213.805 80.3373 214.054C80.1003 218.565 78.9402 222.07 77.9827 223.865C76.8176 220.603 76.2859 217.248 76.1472 214.087C72.9867 213.949 69.6311 213.417 66.3688 212.252C68.1642 211.294 71.6694 210.134 76.1808 209.897Z" fill="url(#paint7_linear)"/>
<path fill-rule="evenodd" clip-rule="evenodd" d="M80.8043 307.56C81.1699 301.308 82.4163 296.074 83.4552 293.165C85.4961 298.268 86.5049 303.166 86.846 307.633C91.3131 307.974 96.2115 308.983 101.314 311.024C98.4048 312.063 93.1714 313.309 86.9195 313.675C86.5708 320.312 84.8639 325.469 83.4552 328.111C81.7411 323.311 80.9589 318.374 80.7549 313.724C76.105 313.52 71.1681 312.738 66.3686 311.024C69.0099 309.615 74.1669 307.908 80.8043 307.56Z" fill="url(#paint8_linear)"/>
<circle cx="118.788" cy="270.591" r="2.29557" fill="#2F235A"/>
<circle cx="171.469" cy="204.772" r="2.29557" fill="#FE9076"/>
<circle cx="56.005" cy="261.478" r="2.29557" fill="#FFA400"/>
<circle cx="158.886" cy="305.996" r="2.29557" fill="#23BB86"/>
<path d="M165.844 195.191C160.654 188.063 146.035 172.838 129.076 168.962" stroke="#FE9076" stroke-width="1.60277" stroke-linecap="round"/>
<path d="M46.3195 255.325C38.6487 250.977 19.0457 243.15 2.00009 246.625" stroke="#FFA400" stroke-width="1.60277" stroke-linecap="round"/>
<path d="M151.007 312.664C147.076 316.132 137.62 325.982 131.238 337.636" stroke="#23BB86" stroke-width="1.60277" stroke-linecap="round"/>
<path fill-rule="evenodd" clip-rule="evenodd" d="M434.665 257.773C434.416 253.524 433.569 249.967 432.863 247.989C431.476 251.457 430.79 254.787 430.558 257.823C427.522 258.055 424.193 258.741 420.725 260.128C422.702 260.834 426.259 261.681 430.508 261.93C430.745 266.441 431.906 269.946 432.863 271.742C434.028 268.479 434.56 265.124 434.698 261.963C437.859 261.825 441.215 261.293 444.477 260.128C442.682 259.171 439.176 258.01 434.665 257.773Z" fill="url(#paint9_linear)"/>
<path fill-rule="evenodd" clip-rule="evenodd" d="M468.184 229.815C468.019 226.987 467.455 224.619 466.985 223.303C466.061 225.611 465.605 227.828 465.451 229.849C463.43 230.003 461.213 230.459 458.905 231.383C460.221 231.853 462.589 232.417 465.417 232.582C465.575 235.585 466.347 237.918 466.985 239.113C467.76 236.942 468.114 234.708 468.206 232.605C470.31 232.512 472.544 232.158 474.715 231.383C473.52 230.745 471.187 229.973 468.184 229.815Z" fill="url(#paint10_linear)"/>
<path fill-rule="evenodd" clip-rule="evenodd" d="M522.192 209.897C521.944 205.648 521.097 202.09 520.391 200.113C519.003 203.581 518.318 206.911 518.086 209.947C515.05 210.179 511.72 210.865 508.252 212.252C510.229 212.958 513.787 213.805 518.036 214.053C518.273 218.565 519.433 222.07 520.391 223.865C521.556 220.603 522.087 217.248 522.226 214.087C525.387 213.948 528.742 213.417 532.004 212.252C530.209 211.294 526.704 210.134 522.192 209.897Z" fill="url(#paint11_linear)"/>
<path fill-rule="evenodd" clip-rule="evenodd" d="M517.569 307.56C517.203 301.308 515.957 296.074 514.918 293.165C512.877 298.268 511.868 303.166 511.527 307.633C507.06 307.974 502.162 308.983 497.059 311.024C499.968 312.063 505.202 313.309 511.454 313.675C511.802 320.312 513.509 325.469 514.918 328.111C516.632 323.311 517.414 318.374 517.618 313.724C522.268 313.52 527.205 312.738 532.004 311.024C529.363 309.615 524.206 307.908 517.569 307.56Z" fill="url(#paint12_linear)"/>
<circle r="2.29557" transform="matrix(-1 0 0 1 479.585 270.591)" fill="#2F235A"/>
<circle r="2.29557" transform="matrix(-1 0 0 1 426.904 204.772)" fill="#FE9076"/>
<circle r="2.29557" transform="matrix(-1 0 0 1 542.368 261.478)" fill="#FFA400"/>
<circle r="2.29557" transform="matrix(-1 0 0 1 439.487 305.996)" fill="#23BB86"/>
<path d="M432.529 195.191C437.719 188.063 452.339 172.838 469.298 168.962" stroke="#FE9076" stroke-width="1.60277" stroke-linecap="round"/>
<path d="M552.054 255.325C559.724 250.977 579.327 243.15 596.373 246.625" stroke="#FFA400" stroke-width="1.60277" stroke-linecap="round"/>
<path d="M447.366 312.664C451.297 316.132 460.754 325.982 467.135 337.636" stroke="#23BB86" stroke-width="1.60277" stroke-linecap="round"/>
<path d="M336.631 44.1716C334.028 41.4882 328.759 42.95 328.759 45.8731C328.759 48.0682 335.982 51.5018 336.631 51.9483C337.284 51.5018 344.148 48.0682 344.148 45.8731C344.148 42.9722 339.239 41.4882 336.631 44.1716Z" fill="#FFBCBC"/>
<circle cx="336.453" cy="120.797" r="17.2836" stroke="#F7F7F7" stroke-width="0.649684"/>
<path d="M274.893 28.17C272.59 25.7951 267.927 27.0889 267.927 29.676C267.927 31.6187 274.319 34.6576 274.893 35.0528C275.472 34.6576 281.546 31.6187 281.546 29.676C281.546 27.1085 277.202 25.7951 274.893 28.17Z" fill="#FFBCBC"/>
<circle cx="274.737" cy="96.2717" r="15.2967" stroke="#F7F7F7" stroke-width="0.574998"/>
<path d="M315.637 10.7193C314.061 9.09503 310.872 9.97989 310.872 11.7493C310.872 13.078 315.244 15.1564 315.637 15.4267C316.032 15.1564 320.187 13.078 320.187 11.7493C320.187 9.9933 317.215 9.09503 315.637 10.7193Z" fill="#FFBCBC"/>
<circle cx="315.529" cy="68.7895" r="10.4619" stroke="#F7F7F7" stroke-width="0.393259"/>
<path d="M243.669 1.68065C242.379 0.351595 239.77 1.07562 239.77 2.5234C239.77 3.61058 243.347 5.31122 243.669 5.53235C243.992 5.31122 247.392 3.61058 247.392 2.5234C247.392 1.0866 244.96 0.351595 243.669 1.68065Z" fill="#FFBCBC"/>
<circle cx="243.581" cy="54.7212" r="8.56032" stroke="#F7F7F7" stroke-width="0.321779"/>
<path d="M237.327 63.9839C234.513 61.0821 228.815 62.6629 228.815 65.8239C228.815 68.1975 236.626 71.9105 237.327 72.3933C238.034 71.9105 245.456 68.1975 245.456 65.8239C245.456 62.6869 240.148 61.0821 237.327 63.9839Z" fill="#FFBCBC"/>
<circle cx="237.136" cy="150.872" r="18.6898" stroke="#F7F7F7" stroke-width="0.702541"/>
<defs>
<filter id="filter0_d" x="201.378" y="150.244" width="199.721" height="140.249" filterUnits="userSpaceOnUse" color-interpolation-filters="sRGB">
<feFlood flood-opacity="0" result="BackgroundImageFix"/>
<feColorMatrix in="SourceAlpha" type="matrix" values="0 0 0 0 0 0 0 0 0 0 0 0 0 0 0 0 0 0 127 0"/>
<feOffset dy="4"/>
<feGaussianBlur stdDeviation="17"/>
<feColorMatrix type="matrix" values="0 0 0 0 0.0386285 0 0 0 0 0.0648437 0 0 0 0 0.104167 0 0 0 0.13 0"/>
<feBlend mode="normal" in2="BackgroundImageFix" result="effect1_dropShadow"/>
<feBlend mode="normal" in="SourceGraphic" in2="effect1_dropShadow" result="shape"/>
</filter>
<filter id="filter1_d" x="329.374" y="230.346" width="79.2946" height="94.9851" filterUnits="userSpaceOnUse" color-interpolation-filters="sRGB">
<feFlood flood-opacity="0" result="BackgroundImageFix"/>
<feColorMatrix in="SourceAlpha" type="matrix" values="0 0 0 0 0 0 0 0 0 0 0 0 0 0 0 0 0 0 127 0"/>
<feOffset dy="4"/>
<feGaussianBlur stdDeviation="17"/>
<feColorMatrix type="matrix" values="0 0 0 0 0.0386285 0 0 0 0 0.0648437 0 0 0 0 0.104167 0 0 0 0.13 0"/>
<feBlend mode="normal" in2="BackgroundImageFix" result="effect1_dropShadow"/>
<feBlend mode="normal" in="SourceGraphic" in2="effect1_dropShadow" result="shape"/>
</filter>
<filter id="filter2_d" x="309.754" y="213.363" width="98.2306" height="125.402" filterUnits="userSpaceOnUse" color-interpolation-filters="sRGB">
<feFlood flood-opacity="0" result="BackgroundImageFix"/>
<feColorMatrix in="SourceAlpha" type="matrix" values="0 0 0 0 0 0 0 0 0 0 0 0 0 0 0 0 0 0 127 0"/>
<feOffset dy="4"/>
<feGaussianBlur stdDeviation="17"/>
<feColorMatrix type="matrix" values="0 0 0 0 0.0386285 0 0 0 0 0.0648437 0 0 0 0 0.104167 0 0 0 0.13 0"/>
<feBlend mode="normal" in2="BackgroundImageFix" result="effect1_dropShadow"/>
<feBlend mode="normal" in="SourceGraphic" in2="effect1_dropShadow" result="shape"/>
</filter>
<filter id="filter3_d" x="191.453" y="230.346" width="79.2946" height="94.9851" filterUnits="userSpaceOnUse" color-interpolation-filters="sRGB">
<feFlood flood-opacity="0" result="BackgroundImageFix"/>
<feColorMatrix in="SourceAlpha" type="matrix" values="0 0 0 0 0 0 0 0 0 0 0 0 0 0 0 0 0 0 127 0"/>
<feOffset dy="4"/>
<feGaussianBlur stdDeviation="17"/>
<feColorMatrix type="matrix" values="0 0 0 0 0.0386285 0 0 0 0 0.0648437 0 0 0 0 0.104167 0 0 0 0.13 0"/>
<feBlend mode="normal" in2="BackgroundImageFix" result="effect1_dropShadow"/>
<feBlend mode="normal" in="SourceGraphic" in2="effect1_dropShadow" result="shape"/>
</filter>
<filter id="filter4_d" x="191.946" y="213.363" width="98.2306" height="125.402" filterUnits="userSpaceOnUse" color-interpolation-filters="sRGB">
<feFlood flood-opacity="0" result="BackgroundImageFix"/>
<feColorMatrix in="SourceAlpha" type="matrix" values="0 0 0 0 0 0 0 0 0 0 0 0 0 0 0 0 0 0 127 0"/>
<feOffset dy="4"/>
<feGaussianBlur stdDeviation="17"/>
<feColorMatrix type="matrix" values="0 0 0 0 0.0386285 0 0 0 0 0.0648437 0 0 0 0 0.104167 0 0 0 0.13 0"/>
<feBlend mode="normal" in2="BackgroundImageFix" result="effect1_dropShadow"/>
<feBlend mode="normal" in="SourceGraphic" in2="effect1_dropShadow" result="shape"/>
</filter>
<linearGradient id="paint0_linear" x1="487.917" y1="243.37" x2="491.216" y2="462.613" gradientUnits="userSpaceOnUse">
<stop stop-color="#FFEFE0"/>
<stop offset="1" stop-color="#FFBE99"/>
</linearGradient>
<linearGradient id="paint1_linear" x1="284.002" y1="404.388" x2="136.061" y2="475.291" gradientUnits="userSpaceOnUse">
<stop offset="0.0677966" stop-color="#FFEFE0"/>
<stop offset="1" stop-color="#FFBE99"/>
</linearGradient>
<linearGradient id="paint2_linear" x1="297.708" y1="261.638" x2="300.301" y2="344.398" gradientUnits="userSpaceOnUse">
<stop stop-color="#FFEFE0"/>
<stop offset="1" stop-color="#FFBE99"/>
</linearGradient>
<linearGradient id="paint3_linear" x1="302.018" y1="217.517" x2="302.018" y2="316.897" gradientUnits="userSpaceOnUse">
<stop stop-color="#FFEFE0"/>
<stop offset="1" stop-color="#FFBE99"/>
</linearGradient>
<linearGradient id="paint4_linear" x1="343.366" y1="328.033" x2="270.93" y2="587.95" gradientUnits="userSpaceOnUse">
<stop offset="0.0171777" stop-color="white"/>
<stop offset="1" stop-color="#D7D7D7"/>
</linearGradient>
<linearGradient id="paint5_linear" x1="165.772" y1="250.518" x2="165.772" y2="272.819" gradientUnits="userSpaceOnUse">
<stop stop-color="#FFE89E"/>
<stop offset="1" stop-color="#FFBF1A"/>
</linearGradient>
<linearGradient id="paint6_linear" x1="131.563" y1="224.986" x2="131.563" y2="239.831" gradientUnits="userSpaceOnUse">
<stop stop-color="#FFE89E"/>
<stop offset="1" stop-color="#FFBF1A"/>
</linearGradient>
<linearGradient id="paint7_linear" x1="78.245" y1="202.641" x2="78.245" y2="224.943" gradientUnits="userSpaceOnUse">
<stop stop-color="#FFE89E"/>
<stop offset="1" stop-color="#FFBF1A"/>
</linearGradient>
<linearGradient id="paint8_linear" x1="83.8411" y1="296.885" x2="83.8411" y2="329.696" gradientUnits="userSpaceOnUse">
<stop stop-color="#FFE89E"/>
<stop offset="1" stop-color="#FFBF1A"/>
</linearGradient>
<linearGradient id="paint9_linear" x1="432.601" y1="250.518" x2="432.601" y2="272.819" gradientUnits="userSpaceOnUse">
<stop stop-color="#FFE89E"/>
<stop offset="1" stop-color="#FFBF1A"/>
</linearGradient>
<linearGradient id="paint10_linear" x1="466.81" y1="224.986" x2="466.81" y2="239.831" gradientUnits="userSpaceOnUse">
<stop stop-color="#FFE89E"/>
<stop offset="1" stop-color="#FFBF1A"/>
</linearGradient>
<linearGradient id="paint11_linear" x1="520.128" y1="202.641" x2="520.128" y2="224.943" gradientUnits="userSpaceOnUse">
<stop stop-color="#FFE89E"/>
<stop offset="1" stop-color="#FFBF1A"/>
</linearGradient>
<linearGradient id="paint12_linear" x1="514.532" y1="296.885" x2="514.532" y2="329.696" gradientUnits="userSpaceOnUse">
<stop stop-color="#FFE89E"/>
<stop offset="1" stop-color="#FFBF1A"/>
</linearGradient>
</defs>
</svg>
