<svg width="185" height="202" viewBox="0 0 185 202" fill="none" xmlns="http://www.w3.org/2000/svg">
<g clip-path="url(#clip0)">
<path d="M99.3368 21.1274C105.77 38.3299 126.826 35.7411 141.113 32.0668C144.539 31.1482 148.048 30.1461 151.14 28.3925C154.231 26.6388 156.821 23.7996 157.824 20.3758C158.91 16.5344 157.657 12.2756 155.484 8.93528C153.479 5.84551 150.555 2.58872 147.463 0.584543C146.126 4.00834 141.364 4.25887 138.105 4.25887C133.51 4.25887 129.332 2.50521 125.071 1.2526C120.726 -8.86619e-06 116.047 -0.250531 111.703 0.918572C102.93 3.00626 95.9111 11.9415 99.3368 21.1274Z" fill="black"/>
<path d="M112.454 136.284C112.204 136.284 112.12 136.284 111.953 136.368L112.454 136.284Z" fill="black"/>
<path d="M112.454 136.284C112.204 136.284 112.12 136.284 111.953 136.368L112.454 136.284Z" fill="black"/>
<path d="M93.9043 52.5261V36.4092C93.9043 22.714 106.688 11.524 122.312 11.524C130.083 11.524 137.185 14.2798 142.365 18.7892C147.545 23.2986 150.72 29.4781 150.72 36.3257V52.4426" stroke="black" stroke-width="2" stroke-miterlimit="10"/>
<path d="M150.72 69.9792V88.6013C150.72 102.297 137.937 113.487 122.312 113.487C106.688 113.487 93.9043 102.297 93.9043 88.6013V69.9792" stroke="black" stroke-width="2" stroke-miterlimit="10"/>
<path d="M105.435 75.7412C113.418 75.7412 119.89 69.2731 119.89 61.2944C119.89 53.3157 113.418 46.8476 105.435 46.8476C97.452 46.8476 90.9805 53.3157 90.9805 61.2944C90.9805 69.2731 97.452 75.7412 105.435 75.7412Z" stroke="black" stroke-width="2" stroke-miterlimit="10"/>
<path d="M139.107 75.7412C147.09 75.7412 153.562 69.2731 153.562 61.2944C153.562 53.3157 147.09 46.8476 139.107 46.8476C131.124 46.8476 124.652 53.3157 124.652 61.2944C124.652 69.2731 131.124 75.7412 139.107 75.7412Z" stroke="black" stroke-width="2" stroke-miterlimit="10"/>
<path d="M119.807 60.8769H124.82" stroke="black" stroke-width="4" stroke-miterlimit="10"/>
<path d="M133.926 111.232H134.009V137.37" stroke="black" stroke-width="2" stroke-miterlimit="10"/>
<path d="M113.123 137.036V111.9" stroke="black" stroke-width="2" stroke-miterlimit="10"/>
<path d="M105.436 64.6347C107.282 64.6347 108.778 63.1392 108.778 61.2944C108.778 59.4496 107.282 57.9541 105.436 57.9541C103.59 57.9541 102.094 59.4496 102.094 61.2944C102.094 63.1392 103.59 64.6347 105.436 64.6347Z" fill="black"/>
<path d="M139.108 64.6347C140.954 64.6347 142.45 63.1392 142.45 61.2944C142.45 59.4496 140.954 57.9541 139.108 57.9541C137.262 57.9541 135.766 59.4496 135.766 61.2944C135.766 63.1392 137.262 64.6347 139.108 64.6347Z" fill="black"/>
<path d="M91.9842 66.7224H90.3131C88.475 66.7224 86.8039 67.4739 85.5506 68.643C84.3809 69.8957 83.6289 71.5658 83.6289 73.403C83.6289 77.0773 86.6368 80.0835 90.3131 80.0835H93.6552" stroke="black" stroke-width="2" stroke-miterlimit="10"/>
<path d="M152.56 66.7224H154.231C157.907 66.7224 160.915 69.7286 160.915 73.403C160.915 75.2401 160.163 76.9103 158.91 78.1629C157.74 79.332 156.069 80.0835 154.231 80.0835H150.889" stroke="black" stroke-width="2" stroke-miterlimit="10"/>
<path d="M93.7375 71.3988V75.4072H91.0638C89.9777 75.4072 89.0586 74.4886 89.0586 73.403C89.0586 72.8184 89.3092 72.3174 89.6435 71.9834C89.9777 71.6493 90.479 71.3988 91.0638 71.3988H93.7375Z" fill="black"/>
<path d="M150.889 75.4072V71.3988H153.562C154.649 71.3988 155.568 72.3174 155.568 73.403C155.568 73.9875 155.317 74.4886 154.983 74.8226C154.649 75.1566 154.147 75.4072 153.562 75.4072H150.889Z" fill="black"/>
<path d="M122.313 75.0731C122.313 75.0731 118.135 81.7537 124.819 80.0836" stroke="black" stroke-width="2" stroke-miterlimit="10" stroke-linecap="round"/>
<path d="M114.793 94.3633C114.793 94.3633 121.477 102.631 130.668 94.3633" stroke="black" stroke-width="2" stroke-miterlimit="10" stroke-linecap="round"/>
<path d="M98.918 44.1754C98.918 44.1754 103.513 39.5825 111.451 43.3403" stroke="black" stroke-width="3" stroke-miterlimit="10" stroke-linecap="round"/>
<path d="M145.709 44.1754C145.709 44.1754 141.113 39.5825 133.176 43.3403" stroke="black" stroke-width="3" stroke-miterlimit="10" stroke-linecap="round"/>
<path d="M93.737 34.6556C93.737 34.6556 82.2067 25.7203 87.2199 14.8643C92.2331 4.00834 108.108 9.85386 108.108 9.85386C108.108 9.85386 114.458 36.9102 93.737 34.6556Z" fill="black"/>
<path d="M36.4203 101.379C35.4177 98.1221 33.9973 96.5354 33.2453 91.7755C31.6578 82.2557 32.2427 73.1534 28.3157 73.4874C26.7282 73.6544 26.2269 75.3246 26.3104 76.2431L27.5637 91.2745C27.0624 93.0281 26.1433 92.3601 26.1433 92.3601C26.1433 92.3601 22.8848 78.9989 22.467 76.5772C22.0492 74.239 20.8795 72.9028 19.292 73.0699C16.5347 73.3204 17.6209 76.6607 17.8716 77.9133L20.7959 94.1137C21.0466 95.7004 19.3755 95.1993 19.3755 95.1993L12.8584 78.9989C12.1065 77.2452 10.6861 77.6628 10.6861 77.6628C8.09592 78.2473 9.09855 80.5855 9.09855 80.5855L14.6966 97.788C14.6966 97.8715 14.6966 97.9551 14.6966 98.0386C14.7801 98.9571 13.6104 99.4582 13.1091 98.6231C11.3545 95.9509 7.92881 91.692 5.08802 90.0219C3.66762 89.1868 2.66499 89.3538 2.08012 89.7713C1.49525 90.1889 1.4117 90.9404 1.82946 91.525L12.2736 106.64C14.6966 122.673 24.4723 124.594 24.4723 124.594L30.321 147.475L38.9269 183.55L40.0131 188.143C41.0157 192.569 45.0262 195.742 49.5381 195.742H54.1335C57.392 195.742 59.648 192.569 58.6453 189.563L37.8407 126.264L36.9216 120.753C38.9269 118.498 40.2637 113.738 40.9322 110.314C41.3499 108.477 41.517 106.556 41.3499 104.719C41.0157 100.126 44.1072 91.859 44.1072 91.859C43.8565 90.2724 40.8486 91.6085 40.8486 91.6085C37.5065 92.7776 36.671 98.1221 36.4203 101.045C36.3367 102.297 35.7519 103.383 34.9164 104.218C29.9032 109.145 29.4854 114.657 29.4854 114.657" stroke="black" stroke-width="2" stroke-miterlimit="10"/>
<path d="M22.3841 76.6598C21.9664 74.3216 21.2144 72.5679 19.2091 73.1524C16.5354 73.904 17.5381 76.7433 17.7887 77.9959" stroke="black" stroke-width="2" stroke-miterlimit="10"/>
<path d="M184.978 200.334V201.169H166.763L162.92 179.875V201.169H84.046V189.061C84.046 186.138 84.046 183.215 84.1296 180.292C82.375 181.712 80.4533 182.881 78.1973 184.134L60.7348 195.825C60.6513 195.908 60.5677 195.908 60.4842 195.992C59.7322 196.409 58.8967 196.66 57.9776 196.66L54.3462 196.798C54.3462 196.798 58.2282 195.324 59.1473 191.649L52.8809 170.773C61.821 163.34 76.2756 141.879 104.015 137.453C105.185 137.203 106.438 136.952 107.775 136.785C109.028 136.618 110.282 136.451 111.702 136.368L112.621 136.284V136.451L112.12 136.535C112.287 136.535 112.37 136.535 112.538 136.451H112.621C112.788 136.451 112.955 136.451 113.122 136.368H113.206L114.041 136.284V139.457C114.041 139.875 114.209 140.376 114.626 140.793C115.88 142.213 118.72 143.299 122.146 143.549C122.731 143.633 123.316 143.633 123.901 143.633C123.984 143.633 124.068 143.633 124.068 143.633H124.151C127.493 143.549 130.585 142.631 132.172 141.294C132.674 140.877 133.175 140.292 133.175 139.457V136.535L134.011 136.702H134.178C134.428 136.702 134.595 136.785 134.846 136.785V136.535L135.932 136.702C166.596 140.459 184.978 164.259 184.978 200.334Z" fill="black"/>
<path d="M60.6511 195.741L60.4004 195.908C60.4839 195.908 60.5675 195.825 60.6511 195.741Z" fill="black"/>
</g>
<defs>
<clipPath id="clip0">
<rect width="184.317" height="201.169" fill="white" transform="translate(0.660156)"/>
</clipPath>
</defs>
</svg>
