<svg width="25" height="24" viewBox="0 0 25 24" fill="none" xmlns="http://www.w3.org/2000/svg">
<path fill-rule="evenodd" clip-rule="evenodd" d="M12.3943 3.90706L21.7296 7.54709H21.7256C21.8521 7.59622 21.9603 7.68216 22.0356 7.79339C22.1109 7.90463 22.1498 8.03583 22.1471 8.16939C22.1443 8.30296 22.1 8.4325 22.0202 8.54064C21.9403 8.64878 21.8287 8.73035 21.7003 8.7744L12.3649 12.0097C12.2939 12.0348 12.219 12.0476 12.1436 12.0477C12.0681 12.0474 11.9932 12.0346 11.9222 12.0097L4.14583 9.31275V13.2815C4.14583 13.5421 4.04045 13.792 3.85287 13.9762C3.6653 14.1604 3.41089 14.2639 3.14561 14.2639C2.88034 14.2639 2.62593 14.1604 2.43835 13.9762C2.25078 13.792 2.1454 13.5421 2.1454 13.2815V8.48362C2.1517 8.41682 2.16557 8.35092 2.18674 8.28714C2.18287 8.2703 2.17509 8.25458 2.16732 8.23886C2.15636 8.2167 2.1454 8.19455 2.1454 8.16926C2.14267 8.03572 2.18157 7.90455 2.25689 7.79335C2.33222 7.68214 2.44036 7.59621 2.56682 7.54709L11.9022 3.90706C12.0602 3.84543 12.2362 3.84543 12.3943 3.90706ZM12.1475 13.4781L17.2566 11.7033H17.2553C17.3559 11.6685 17.4635 11.6579 17.5691 11.6724C17.6747 11.687 17.7752 11.7261 17.8622 11.7867C17.9492 11.8473 18.0202 11.9274 18.0691 12.0205C18.1181 12.1135 18.1436 12.2168 18.1435 12.3215V15.5961C18.1433 15.7315 18.1004 15.8636 18.0206 15.9741C17.9408 16.0846 17.8281 16.1681 17.6981 16.213L13.6972 17.6015C12.6923 17.9473 11.5975 17.9473 10.5925 17.6015L6.59167 16.213C6.46158 16.1681 6.34889 16.0846 6.26912 15.9741C6.18935 15.8636 6.14642 15.7315 6.14624 15.5961V12.3215C6.14616 12.2168 6.17166 12.1135 6.2206 12.0205C6.26954 11.9274 6.34048 11.8473 6.42749 11.7867C6.51449 11.7261 6.61501 11.687 6.72062 11.6724C6.82623 11.6579 6.93384 11.6685 7.03443 11.7033L12.1475 13.4781Z" fill="#27AE60"/>
</svg>
