<svg width="28" height="28" viewBox="0 0 28 28" fill="none" xmlns="http://www.w3.org/2000/svg">
<path d="M11.7453 11.5967C10.9574 11.5967 10.3354 12.2878 10.3354 13.1309C10.3354 13.9741 10.9713 14.6652 11.7453 14.6652C12.5331 14.6652 13.1551 13.9741 13.1551 13.1309C13.169 12.2878 12.5331 11.5967 11.7453 11.5967ZM16.7903 11.5967C16.0025 11.5967 15.3805 12.2878 15.3805 13.1309C15.3805 13.9741 16.0163 14.6652 16.7903 14.6652C17.5782 14.6652 18.2002 13.9741 18.2002 13.1309C18.2002 12.2878 17.5782 11.5967 16.7903 11.5967Z" fill="#7289DA"/>
<path d="M23.5078 0H4.98634C3.42446 0 2.15283 1.27162 2.15283 2.84733V21.5347C2.15283 23.1104 3.42446 24.382 4.98634 24.382H20.6605L19.9279 21.8249L21.6971 23.4697L23.3696 25.0178L26.3413 27.644V2.84733C26.3413 1.27162 25.0697 0 23.5078 0ZM18.1725 18.0515C18.1725 18.0515 17.6749 17.4572 17.2603 16.9319C19.0709 16.4205 19.762 15.2871 19.762 15.2871C19.1953 15.6603 18.6563 15.9229 18.1725 16.1026C17.4814 16.3929 16.818 16.5864 16.1683 16.697C14.8414 16.9458 13.6251 16.8766 12.5884 16.6831C11.8006 16.5311 11.1233 16.3099 10.5566 16.0888C10.2387 15.9644 9.89315 15.8124 9.5476 15.6188C9.50613 15.5912 9.46466 15.5774 9.4232 15.5497C9.39555 15.5359 9.38173 15.5221 9.36791 15.5083C9.11911 15.3701 8.9809 15.2733 8.9809 15.2733C8.9809 15.2733 9.64435 16.3791 11.3997 16.9043C10.9851 17.4295 10.4737 18.0515 10.4737 18.0515C7.41901 17.9548 6.25796 15.9506 6.25796 15.9506C6.25796 11.4999 8.24833 7.89236 8.24833 7.89236C10.2387 6.39958 12.1323 6.44105 12.1323 6.44105L12.2705 6.60691C9.78257 7.32565 8.63535 8.41759 8.63535 8.41759C8.63535 8.41759 8.93943 8.25173 9.45084 8.01675C10.9298 7.36712 12.1047 7.18743 12.5884 7.14597C12.6714 7.13215 12.7405 7.11832 12.8234 7.11832C13.6665 7.00775 14.6203 6.9801 15.6154 7.09068C16.9285 7.24272 18.3384 7.62974 19.7759 8.41759C19.7759 8.41759 18.6839 7.38094 16.3342 6.6622L16.5277 6.44105C16.5277 6.44105 18.4213 6.39958 20.4117 7.89236C20.4117 7.89236 22.402 11.4999 22.402 15.9506C22.402 15.9506 21.2272 17.9548 18.1725 18.0515Z" fill="#7289DA"/>
</svg>
