<svg width="29" height="28" viewBox="0 0 29 28" fill="none" xmlns="http://www.w3.org/2000/svg">
<g clip-path="url(#clip0)">
<path d="M14.7121 27.644C22.3458 27.644 28.5341 21.4557 28.5341 13.822C28.5341 6.18832 22.3458 0 14.7121 0C7.07845 0 0.890137 6.18832 0.890137 13.822C0.890137 21.4557 7.07845 27.644 14.7121 27.644Z" fill="url(#paint0_linear)"/>
<path fill-rule="evenodd" clip-rule="evenodd" d="M7.14665 13.676C11.176 11.9205 13.8629 10.7631 15.2073 10.204C19.0458 8.6074 19.8435 8.33006 20.3633 8.3209C20.4777 8.31888 20.7333 8.34722 20.8989 8.4816C21.0388 8.59506 21.0772 8.74834 21.0956 8.85591C21.1141 8.96349 21.137 9.20855 21.1188 9.40004C20.9107 11.5856 20.0107 16.8894 19.5528 19.3373C19.359 20.3731 18.9775 20.7204 18.6082 20.7544C17.8055 20.8283 17.196 20.224 16.4186 19.7143C15.2021 18.9169 14.5148 18.4205 13.334 17.6423C11.9693 16.743 12.854 16.2488 13.6317 15.441C13.8352 15.2296 17.3718 12.0128 17.4402 11.721C17.4488 11.6845 17.4567 11.5485 17.3759 11.4766C17.2951 11.4048 17.1758 11.4294 17.0898 11.4489C16.9677 11.4766 15.0243 12.7611 11.2596 15.3025C10.7079 15.6812 10.2083 15.8658 9.76062 15.8561C9.2671 15.8455 8.31777 15.5771 7.61204 15.3477C6.74644 15.0663 6.05848 14.9175 6.11838 14.4397C6.14959 14.1908 6.49234 13.9362 7.14665 13.676Z" fill="white"/>
</g>
<defs>
<linearGradient id="paint0_linear" x1="14.7121" y1="0" x2="14.7121" y2="27.439" gradientUnits="userSpaceOnUse">
<stop stop-color="#2AABEE"/>
<stop offset="1" stop-color="#229ED9"/>
</linearGradient>
<clipPath id="clip0">
<rect width="27.644" height="27.644" fill="white" transform="translate(0.890137)"/>
</clipPath>
</defs>
</svg>
