<svg width="28" height="28" viewBox="0 0 28 28" fill="none" xmlns="http://www.w3.org/2000/svg">
<g clip-path="url(#clip0)">
<path d="M8.69348 25.053C19.1252 25.053 24.8309 16.4104 24.8309 8.91554C24.8309 8.67006 24.8309 8.42569 24.8143 8.18243C25.9243 7.37955 26.8825 6.38543 27.644 5.24663C26.6089 5.70553 25.5108 6.00633 24.3864 6.13898C25.5705 5.43025 26.4566 4.31538 26.8799 3.00194C25.7666 3.66264 24.5486 4.12823 23.2784 4.37861C22.4233 3.46933 21.2923 2.86723 20.0605 2.66547C18.8287 2.46372 17.5648 2.67357 16.4643 3.26255C15.3637 3.85152 14.488 4.78679 13.9726 5.92362C13.4572 7.06045 13.3308 8.33546 13.613 9.55135C11.3581 9.43824 9.15218 8.85223 7.13843 7.83135C5.12468 6.81047 3.3481 5.37755 1.92402 3.62559C1.19874 4.87417 0.976607 6.35224 1.30284 7.75885C1.62907 9.16546 2.47914 10.3949 3.67997 11.1967C2.77734 11.1703 1.89436 10.9268 1.10576 10.4868V10.5587C1.10612 11.8682 1.55941 13.1372 2.38875 14.1505C3.21809 15.1639 4.37243 15.8592 5.65596 16.1185C4.82097 16.3462 3.94488 16.3795 3.09502 16.2158C3.45759 17.3426 4.16322 18.328 5.11326 19.0342C6.0633 19.7404 7.21027 20.1321 8.39382 20.1545C7.21789 21.0788 5.87125 21.7622 4.43095 22.1656C2.99066 22.569 1.48496 22.6844 0 22.5053C2.59373 24.1697 5.61164 25.0526 8.69348 25.0486" fill="#1DA1F2"/>
</g>
<defs>
<clipPath id="clip0">
<rect width="27.644" height="27.644" fill="white"/>
</clipPath>
</defs>
</svg>
