<svg width="24" height="24" viewBox="0 0 24 24" fill="none" xmlns="http://www.w3.org/2000/svg">
<g clip-path="url(#clip0)">
<path d="M21.6592 7.02014H20.9738V15.773C20.9738 16.5669 20.3301 17.4778 19.5345 17.8047L4.48047 24H21.6592C22.4549 24 23.0985 23.3546 23.0985 22.5607V8.45773C23.0985 7.66554 22.4549 7.02014 21.6592 7.02014Z" fill="#27AE60"/>
<path d="M18.8281 0.11717L2.34165 6.9022C1.54602 7.22912 0.902344 8.14006 0.902344 8.93311V23.0353C0.902344 23.8283 1.54602 24.209 2.34165 23.8821L18.8281 17.0971C19.6237 16.7702 20.2674 15.8601 20.2674 15.0653V0.964012C20.2674 0.17168 19.6237 -0.209892 18.8281 0.11717ZM17.3443 9.94305C16.7621 10.1376 16.2926 9.82101 16.2926 9.24043C16.2926 8.65827 16.763 8.03161 17.3443 7.83775C17.9256 7.64403 18.396 7.95979 18.396 8.54209C18.3962 9.12354 17.924 9.75019 17.3443 9.94305Z" fill="#27AE60"/>
</g>
<defs>
<clipPath id="clip0">
<rect width="24" height="24" fill="white"/>
</clipPath>
</defs>
</svg>
