<?xml version="1.0" encoding="utf-8"?>
<!-- Generator: Adobe Illustrator 23.0.1, SVG Export Plug-In . SVG Version: 6.00 Build 0)  -->
<svg version="1.1" id="Layer_1" xmlns="http://www.w3.org/2000/svg" xmlns:xlink="http://www.w3.org/1999/xlink" x="0px" y="0px"
	 viewBox="0 0 1920.2 1075.6" style="enable-background:new 0 0 1920.2 1075.6;" xml:space="preserve">
<style type="text/css">
	.st0{opacity:0.32;fill:url(#Path_195_1_);}
	.st1{fill:url(#Path_194_1_);}
	.st2{opacity:0.24;}
</style>
<linearGradient id="Path_195_1_" gradientUnits="userSpaceOnUse" x1="600.1875" y1="898.1655" x2="600.1875" y2="897.1655" gradientTransform="matrix(1920.1833 0 0 -1075.636 -1151510 966099.125)">
	<stop  offset="0" style="stop-color:#17002B"/>
	<stop  offset="1" style="stop-color:#30004F"/>
</linearGradient>
<path id="Path_195" class="st0" d="M0,607.4c0,0,100.4,239.9,401.2,191.5s442.1,9.6,537.6,114.9s352.1,94.3,581,52.4
	s363.2,41.8,400.4,109.4c0,0-0.4-1075.6-0.4-1075.6L0,0L0,607.4z"/>
<linearGradient id="Path_194_1_" gradientUnits="userSpaceOnUse" x1="600.1875" y1="898.1655" x2="600.1875" y2="897.1655" gradientTransform="matrix(1920.1058 0 0 -1075.6212 -1151463.5 966085.875)">
	<stop  offset="0" style="stop-color:#17002B"/>
	<stop  offset="1" style="stop-color:#30004F"/>
</linearGradient>
<path id="Path_194" class="st1" d="M0.1,607.6c0,0,95.3,204.2,401.2,161.1c305.9-43,419.7-32.1,544.2,96.9s344,107.5,572.9,67.1
	s360.2,68.2,401.8,143c0-2.4-0.1-1075.6-0.1-1075.6L0.1,0L0.1,607.6z"/>
<g class="st2">
	<defs>
		<path id="SVGID_1_" class="st2" d="M0.1,607.6c0,0,95.3,204.2,401.2,161.1c305.9-43,419.7-32.1,544.2,96.9s344,107.5,572.9,67.1
			s360.2,68.2,401.8,143c0-2.4-0.1-1075.6-0.1-1075.6L0.1,0L0.1,607.6z"/>
	</defs>
	<clipPath id="SVGID_2_">
		<use xlink:href="#SVGID_1_"  style="overflow:visible;"/>
	</clipPath>
</g>
</svg>
