<?xml version="1.0" encoding="utf-8"?>
<!-- Generator: Adobe Illustrator 23.0.1, SVG Export Plug-In . SVG Version: 6.00 Build 0)  -->
<svg version="1.1" id="Layer_1" xmlns="http://www.w3.org/2000/svg" xmlns:xlink="http://www.w3.org/1999/xlink" x="0px" y="0px"
	 viewBox="0 0 111.2 30.6" style="enable-background:new 0 0 111.2 30.6;" xml:space="preserve">
<style type="text/css">
	.st0{fill:#161515;}
	.st1{font-family:'Arial-BoldMT';}
	.st2{font-size:24px;}
	.st3{fill:none;stroke:#FFFFFF;stroke-width:1.4905;stroke-miterlimit:10;}
	.st4{fill:#D1D3D4;}
	.st5{fill:#414042;}
	.st6{fill:#6A0C0E;}
	.st7{fill:url(#SVGID_1_);}
	.st8{fill:#939598;}
	.st9{fill:url(#SVGID_2_);}
	.st10{fill:url(#SVGID_3_);}
	.st11{fill:none;stroke:#FFFFFF;stroke-width:0.6472;stroke-miterlimit:10;}
	.st12{fill:none;}
</style>
<g>
	<text transform="matrix(1 0 0 1 27.1857 20.9758)" class="st0 st1 st2">CAGE</text>
	<g>
		<path class="st3" d="M24.8,21"/>
		<polygon class="st4" points="15.5,21.2 14.4,20.7 15.5,7 15,5.3 18.3,4 22.7,15.7 21.6,17.1 18.1,20.8 		"/>
		<path class="st5" d="M15,7.4L7.6,7.3c-0.7,0.1-1.2,0.6-1,1.4c0.2,1.2,1.1,6.2,1.2,6.9c0.2,0.7,0.8,1.4,1.8,1.5
			c1,0.1,8.4,0.1,8.4,0.1l0.6,2.7c0,0-7.1,0-8.8,0c-1.9,0-3.6-0.8-4-3.3C5.4,15,5,12.9,4.4,9.8c-0.7-3.3,1.5-4.9,3-5
			c1.7-0.1,8.8,0.1,8.8,0.1l0.6,2.4L15,7.4z"/>
		<path class="st6" d="M6.9,6.5c0,0,1.8,8.5,1.9,8.9c0.1,0.5,0.7,0.9,1.3,0.9c0.6,0,8.8,0.2,9.2,0.2c0.7,0,0.7-0.4,0.7-0.6
			c0-0.2-2.9-10.4-2.9-10.4S8.2,5.4,7.9,5.4C7.3,5.4,6.8,5.9,6.9,6.5z"/>
		
			<linearGradient id="SVGID_1_" gradientUnits="userSpaceOnUse" x1="12.021" y1="15.454" x2="9.719" y2="17.3622" gradientTransform="matrix(1 0 0 -1 0 32)">
			<stop  offset="0" style="stop-color:#939598"/>
			<stop  offset="0.2715" style="stop-color:#96989A"/>
			<stop  offset="0.4853" style="stop-color:#9D9FA2"/>
			<stop  offset="0.6795" style="stop-color:#AAADAF"/>
			<stop  offset="0.8609" style="stop-color:#BEBFC2"/>
			<stop  offset="1" style="stop-color:#D1D3D4"/>
		</linearGradient>
		<path class="st7" d="M24,13.9c-0.4,0-12.9-0.2-12.9-0.2L10.1,15c0,0,9.6,0.2,10.8,0.2c1.2,0,1.6,0.6,1,1.3
			c-0.3,0.3-1.8,1.8-3.3,3.3c-0.7,0-8,0-9.4-0.1c-1.9-0.1-3.1-1.4-3.5-3.3c-0.3-1.4-1-5.1-1.2-6C4.1,8.2,4.1,7.2,5.3,5.8
			c-1.2,1.2-3.9,4.1-4,4.3c-0.6,0.6-0.3,1.7-0.1,2.7c0.2,1,1.1,5.6,1.4,7c0.3,1.4,0.7,3.3,3.4,3.3c2.7,0,10.9,0,10.9,0l7.5-6.5
			C25.7,15.2,24.5,13.9,24,13.9z"/>
		<polygon class="st8" points="9,10.1 20.9,10.2 18.1,4.1 9,4 7.9,5.4 18.6,5.7 19.3,8.8 10.1,8.7 		"/>
		<polygon class="st4" points="11.2,13.6 10.7,11.3 9.6,12.7 10.1,15 		"/>
		<polygon class="st4" points="9,4 8.6,1.8 7.4,3.2 7.9,5.4 		"/>
		<polygon class="st4" points="10.1,8.7 9.6,6.6 8.5,8 9,10.1 		"/>
		
			<linearGradient id="SVGID_2_" gradientUnits="userSpaceOnUse" x1="277.6476" y1="432.4131" x2="282.3935" y2="429.3546" gradientTransform="matrix(0.6271 -0.779 -0.779 -0.6271 179.2932 495.5944)">
			<stop  offset="0" style="stop-color:#414042"/>
			<stop  offset="0.4749" style="stop-color:#3D3D3E"/>
			<stop  offset="0.7604" style="stop-color:#2D2C2D"/>
			<stop  offset="0.9954" style="stop-color:#010101"/>
			<stop  offset="1" style="stop-color:#000000"/>
		</linearGradient>
		<path class="st9" d="M19.1,2.2c-0.6,0-10.6-0.4-10.6-0.4L9,4l8.9,0.1c0,0,0.7,2.2,0.8,2.6L9.6,6.6l0.4,2.1c0,0,5,0.1,9.1,0.1
			c0.2,0.6,0.6,2.1,0.8,2.5l-9.2-0.1l0.5,2.4c0,0,11.7,0.3,12.3,0.3c0.5,0,0.9,0.2,1.2,0.5c0,0-3.3-10.2-3.5-10.6
			C20.9,2.9,20.3,2.2,19.1,2.2z"/>
		<polygon class="st4" points="17.9,4.1 17.1,5.6 17.4,6.7 18.7,6.8 		"/>
		<polygon class="st4" points="19.2,8.9 18.3,10.2 18.6,11.4 19.9,11.4 		"/>
		
			<linearGradient id="SVGID_3_" gradientUnits="userSpaceOnUse" x1="269.4232" y1="428.9071" x2="269.3505" y2="437.8512" gradientTransform="matrix(0.6271 -0.779 -0.779 -0.6271 179.2932 495.5944)">
			<stop  offset="0.3685" style="stop-color:#941A1D"/>
			<stop  offset="0.4368" style="stop-color:#A51C1F"/>
			<stop  offset="0.5687" style="stop-color:#D61F24"/>
			<stop  offset="0.6088" style="stop-color:#ED1F24"/>
		</linearGradient>
		<path class="st10" d="M7,5.8C6.7,6.3,6.1,7,5.9,7.3C5.7,7.5,5.6,8,5.7,8.3c0.1,1,1.3,6.5,1.5,7.5c0.2,1,1.3,2.1,2.7,2.2
			c1.2,0.1,8.2,0.1,8.2,0.1l1.7-1.7c0,0-0.1,0.1-0.6,0.1c-2.5-0.1-8.4-0.2-9-0.2c-0.7,0-1.2-0.4-1.3-0.9c-0.1-0.5-1.8-7.8-2-8.6
			C6.9,6.4,6.8,6.2,7,5.8z"/>
		<path class="st11" d="M11.8,16.8"/>
		<path class="st11" d="M8.5,1.8"/>
		<path class="st11" d="M16.2,8.7"/>
		<path class="st11" d="M8.1,16.5"/>
		<path class="st11" d="M15.3,6.9"/>
		<path class="st11" d="M7.1,14.7"/>
		<line class="st12" x1="8.6" y1="1.8" x2="10.1" y2="8.8"/>
	</g>
</g>
</svg>
