<?xml version="1.0" encoding="utf-8"?>
<!-- Generator: Adobe Illustrator 23.0.1, SVG Export Plug-In . SVG Version: 6.00 Build 0)  -->
<svg version="1.1" id="Layer_1" xmlns="http://www.w3.org/2000/svg" xmlns:xlink="http://www.w3.org/1999/xlink" x="0px" y="0px"
	 viewBox="0 0 1440 632" style="enable-background:new 0 0 1440 632;" xml:space="preserve">
<style type="text/css">
	.st0{opacity:0.15;fill:#7C0808;enable-background:new    ;}
	.st1{opacity:0.35;fill:#7C0808;}
	.st2{fill:#7C0808;}
</style>
<path class="st0" d="M-1,0l48,4.5c48,4.9,144,13.4,240,31.9C383,54.6,479,81.9,575,91c96,8.8,192,0.3,288-9.1s192-17.9,288-13.7
	s192,23,240,31.8l48,9.1V273h-48c-48,0-144,0-240,0s-192,0-288,0s-192,0-288,0s-192,0-288,0s-192,0-240,0H-1V0z"/>
<path class="st1" d="M-1,468l48,21.3c48,21.7,144,63.7,240,48C383,521,479,447,575,436s192,43,288,85.3c96,42.7,192,74.7,288,90.7
	s192,16,240,16h48V340h-48c-48,0-144,0-240,0s-192,0-288,0s-192,0-288,0s-192,0-288,0s-192,0-240,0H-1V468z"/>
<path class="st2" d="M1391,127.4c-48-9.7-144-30.7-240-35.4s-192,4.7-288,15.2s-192,20-288,10.2c-96-10.2-192-40.6-288-60.8
	C191,36,95,26.5,47,21l-48-5v300v4v124l48,21.3c48,21.7,144,63.7,240,48C383,497,479,423,575,412s192,43,288,85.3
	c96,42.7,192,74.7,288,90.7s192,16,240,16h48V320v-4V137.6L1391,127.4z"/>
</svg>
