<?xml version="1.0" encoding="utf-8"?>
<!-- Generator: Adobe Illustrator 23.0.1, SVG Export Plug-In . SVG Version: 6.00 Build 0)  -->
<svg version="1.1" id="Layer_1" xmlns="http://www.w3.org/2000/svg" xmlns:xlink="http://www.w3.org/1999/xlink" x="0px" y="0px"
	 viewBox="0 0 1440 320" style="enable-background:new 0 0 1440 320;" xml:space="preserve">
<style type="text/css">
	.st0{opacity:0.15;fill:#7C0808;enable-background:new    ;}
	.st1{fill:#7C0808;}
</style>
<g>
	<path class="st0" d="M-1,0l48,4.5c48,4.9,144,13.4,240,31.9C383,54.6,479,81.9,575,91c96,8.8,192,0.3,288-9.1s192-17.9,288-13.7
		s192,23,240,31.8l48,9.1V273h-48c-48,0-144,0-240,0s-192,0-288,0s-192,0-288,0s-192,0-288,0s-192,0-240,0H-1V0z"/>
	<path class="st1" d="M-1,16l48,5c48,5.5,144,15,240,35.6c96,20.2,192,50.6,288,60.8c96,9.8,192,0.3,288-10.2s192-19.9,288-15.2
		s192,25.7,240,35.4l48,10.2V320h-48c-48,0-144,0-240,0s-192,0-288,0s-192,0-288,0s-192,0-288,0s-192,0-240,0H-1V16z"/>
</g>
</svg>
