<?xml version="1.0" encoding="utf-8"?>
<!-- Generator: Adobe Illustrator 23.0.1, SVG Export Plug-In . SVG Version: 6.00 Build 0)  -->
<svg version="1.1" id="Layer_1" xmlns="http://www.w3.org/2000/svg" xmlns:xlink="http://www.w3.org/1999/xlink" x="0px" y="0px"
	 viewBox="0 0 1440 320" style="enable-background:new 0 0 1440 320;" xml:space="preserve">
<style type="text/css">
	.st0{opacity:0.15;fill:#7C0808;}
	.st1{fill:#7C0808;}
</style>
<path class="st0" d="M0,274l48-16c48-16,144-48,240-74.7c96-26.3,192-48.3,288-32c96,15.7,192,69.7,288,85.4c96,16.3,192-5.7,288,0
	c96,5.3,195.5,51.3,243.5,67.3l48,16l0,0h-48c-48,0-147.5-14-243.5-14s-192,0-288,0s-192,0-288,0s-192,0-288,0s-192,0-240,0H0V274z"
	/>
<path class="st1" d="M0,288l48-16c48-16,144-48,240-74.7c96-26.3,192-48.3,288-32c96,15.7,192,69.7,288,85.4c96,16.3,192-5.7,288,0
	c96,5.3,192,37.3,240,53.3l48,16l0,0h-48c-48,0-144,0-240,0s-192,0-288,0s-192,0-288,0s-192,0-288,0s-192,0-240,0H0V288z"/>
</svg>
