<?xml version="1.0" encoding="utf-8"?>
<!-- Generator: Adobe Illustrator 23.0.1, SVG Export Plug-In . SVG Version: 6.00 Build 0)  -->
<svg version="1.1" id="Layer_1" xmlns="http://www.w3.org/2000/svg" xmlns:xlink="http://www.w3.org/1999/xlink" x="0px" y="0px"
	 viewBox="0 0 111.2 30.6" style="enable-background:new 0 0 111.2 30.6;" xml:space="preserve">
<style type="text/css">
	.st0{fill:#FFFFFF;}
	.st1{font-family:'Arial-BoldMT';}
	.st2{font-size:24px;}
	.st3{fill:none;stroke:#FFFFFF;stroke-width:1.4905;stroke-miterlimit:10;}
	.st4{fill:#D1D3D4;}
	.st5{fill:#414042;}
	.st6{fill:#6A0C0E;}
	.st7{fill:url(#SVGID_1_);}
	.st8{fill:#939598;}
	.st9{fill:url(#SVGID_2_);}
	.st10{fill:url(#SVGID_3_);}
	.st11{fill:none;stroke:#FFFFFF;stroke-width:0.6472;stroke-miterlimit:10;}
	.st12{fill:none;}
</style>
<g>
	<text transform="matrix(1 0 0 1 28.1857 21.4456)" class="st0 st1 st2">CAGE</text>
	<g>
		<path class="st3" d="M25.8,21.4"/>
		<polygon class="st4" points="16.5,21.6 15.4,21.2 16.5,7.5 16,5.8 19.3,4.5 23.7,16.2 22.6,17.6 19.1,21.2 		"/>
		<path class="st5" d="M16,7.8L8.6,7.7c-0.7,0.1-1.2,0.6-1,1.4c0.2,1.2,1.1,6.2,1.2,6.9c0.2,0.7,0.8,1.4,1.8,1.5s8.4,0.1,8.4,0.1
			l0.6,2.7c0,0-7.1,0-8.8,0c-1.9,0-3.6-0.8-4-3.3c-0.3-1.6-0.7-3.7-1.3-6.7C4.8,7,7,5.4,8.5,5.3c1.7-0.1,8.8,0.1,8.8,0.1l0.6,2.4
			L16,7.8z"/>
		<path class="st6" d="M7.9,6.9c0,0,1.8,8.5,1.9,8.9c0.1,0.5,0.7,0.9,1.3,0.9c0.6,0,8.8,0.2,9.2,0.2c0.7,0,0.7-0.4,0.7-0.6
			C20.9,16.2,18,6,18,6S9.2,5.9,8.9,5.9C8.3,5.9,7.8,6.4,7.9,6.9z"/>
		
			<linearGradient id="SVGID_1_" gradientUnits="userSpaceOnUse" x1="13.0097" y1="705.0295" x2="10.7077" y2="703.1212" gradientTransform="matrix(1 0 0 1 0 -688)">
			<stop  offset="0" style="stop-color:#939598"/>
			<stop  offset="0.2715" style="stop-color:#96989A"/>
			<stop  offset="0.4853" style="stop-color:#9D9FA2"/>
			<stop  offset="0.6795" style="stop-color:#AAADAF"/>
			<stop  offset="0.8609" style="stop-color:#BEBFC2"/>
			<stop  offset="1" style="stop-color:#D1D3D4"/>
		</linearGradient>
		<path class="st7" d="M25,14.3c-0.4,0-12.9-0.2-12.9-0.2L11,15.5c0,0,9.6,0.2,10.8,0.2c1.2,0,1.6,0.6,1,1.3
			c-0.3,0.3-1.8,1.8-3.3,3.3c-0.7,0-8,0-9.4-0.1c-1.9-0.1-3.1-1.4-3.5-3.3c-0.3-1.4-1-5.1-1.2-6C5,8.7,5,7.7,6.2,6.3
			c-1.2,1.2-3.9,4.1-4,4.3c-0.6,0.6-0.3,1.7-0.1,2.7s1.1,5.6,1.4,7c0.3,1.4,0.7,3.3,3.4,3.3s10.9,0,10.9,0l7.5-6.5
			C26.7,15.7,25.5,14.4,25,14.3z"/>
		<polygon class="st8" points="10,10.6 21.9,10.7 19.1,4.5 10,4.5 8.9,5.9 19.6,6.1 20.3,9.3 11.1,9.2 		"/>
		<polygon class="st4" points="12.2,14.1 11.7,11.7 10.6,13.2 11.1,15.5 		"/>
		<polygon class="st4" points="10,4.5 9.6,2.3 8.4,3.6 8.9,5.9 		"/>
		<polygon class="st4" points="11.1,9.2 10.6,7.1 9.5,8.5 10,10.6 		"/>
		
			<linearGradient id="SVGID_2_" gradientUnits="userSpaceOnUse" x1="-103.0249" y1="396.3401" x2="-98.2791" y2="399.3986" gradientTransform="matrix(0.6271 -0.779 0.779 0.6271 -226.5995 -320.2322)">
			<stop  offset="0" style="stop-color:#414042"/>
			<stop  offset="0.4749" style="stop-color:#3D3D3E"/>
			<stop  offset="0.7604" style="stop-color:#2D2C2D"/>
			<stop  offset="0.9954" style="stop-color:#010101"/>
			<stop  offset="1" style="stop-color:#000000"/>
		</linearGradient>
		<path class="st9" d="M20.1,2.6c-0.6,0-10.6-0.4-10.6-0.4L10,4.5l8.9,0.1c0,0,0.7,2.2,0.8,2.6l-9.1-0.1L11,9.2c0,0,5,0.1,9.1,0.1
			c0.2,0.6,0.6,2.1,0.8,2.5l-9.2-0.1l0.5,2.4c0,0,11.7,0.3,12.3,0.3c0.5,0,0.9,0.2,1.2,0.5c0,0-3.3-10.2-3.5-10.6
			C21.9,3.4,21.3,2.7,20.1,2.6z"/>
		<polygon class="st4" points="18.9,4.6 18.1,6.1 18.4,7.2 19.7,7.2 		"/>
		<polygon class="st4" points="20.2,9.3 19.3,10.7 19.6,11.8 20.9,11.9 		"/>
		
			<linearGradient id="SVGID_3_" gradientUnits="userSpaceOnUse" x1="-111.276" y1="399.8828" x2="-111.3487" y2="390.9387" gradientTransform="matrix(0.6271 -0.779 0.779 0.6271 -226.5995 -320.2322)">
			<stop  offset="0.3685" style="stop-color:#941A1D"/>
			<stop  offset="0.4368" style="stop-color:#A51C1F"/>
			<stop  offset="0.5687" style="stop-color:#D61F24"/>
			<stop  offset="0.6088" style="stop-color:#ED1F24"/>
		</linearGradient>
		<path class="st10" d="M8,6.3C7.7,6.7,7.1,7.5,6.9,7.7C6.7,8,6.6,8.5,6.6,8.7c0.1,1,1.3,6.5,1.5,7.5s1.3,2.1,2.7,2.2
			c1.2,0.1,8.2,0.1,8.2,0.1l1.7-1.7c0,0-0.1,0.1-0.6,0.1c-2.5-0.1-8.4-0.2-9-0.2c-0.7,0-1.2-0.4-1.3-0.9S8,8,7.8,7.2
			C7.9,6.9,7.8,6.6,8,6.3z"/>
		<path class="st11" d="M12.8,17.2"/>
		<path class="st11" d="M9.5,2.3"/>
		<path class="st11" d="M17.2,9.2"/>
		<path class="st11" d="M9.1,16.9"/>
		<path class="st11" d="M16.3,7.4"/>
		<path class="st11" d="M8.1,15.2"/>
		<line class="st12" x1="9.6" y1="2.3" x2="11.1" y2="9.3"/>
	</g>
</g>
</svg>
